<svg xmlns="http://www.w3.org/2000/svg" version="1.1" xmlns:xlink="http://www.w3.org/1999/xlink" xmlns:svgjs="http://svgjs.dev/svgjs" width="1000" height="1000" viewBox="0 0 1000 1000"><rect width="1000" height="1000" fill="#ffffff"></rect><g transform="matrix(0.7,0,0,0.7,149.57575879738533,415.4920460267173)"><svg viewBox="0 0 396 96" data-background-color="#ffffff" preserveAspectRatio="xMidYMid meet" height="242" width="1000" xmlns="http://www.w3.org/2000/svg" xmlns:xlink="http://www.w3.org/1999/xlink"><g id="tight-bounds" transform="matrix(1,0,0,1,0.23999930890772703,0.1022482971187344)"><svg viewBox="0 0 395.52 95.79550340576253" height="95.79550340576253" width="395.52"><g><svg viewBox="0 0 468.362318829435 113.43801605116298" height="95.79550340576253" width="395.52"><g transform="matrix(1,0,0,1,72.84231882943503,15.677757645276508)"><svg viewBox="0 0 395.52 82.08250076060996" height="82.08250076060996" width="395.52"><g id="textblocktransform"><svg viewBox="0 0 395.52 82.08250076060996" height="82.08250076060996" width="395.52" id="textblock"><g><svg viewBox="0 0 395.52 44.27137871403867" height="44.27137871403867" width="395.52"><g transform="matrix(1,0,0,1,0,0)"><svg width="395.52" viewBox="3.8499999046325684 -35.25 318.0299987792969 35.599998474121094" height="44.27137871403867" data-palette-color="#010c80"><path d="M26.15-34.85L30.7-34.85 30.7 0 26.15 0 26.15-15.8 8.4-15.8 8.4 0 3.85 0 3.85-34.85 8.4-34.85 8.4-19.55 26.15-19.55 26.15-34.85ZM38.45-34.85L43-34.85 43 0 38.45 0 38.45-34.85ZM75.6 0L69.65 0 55.3-15.9 55.3 0 50.75 0 50.75-34.85 55.3-34.85 55.3-18.7 69.7-34.85 75.45-34.85 59.65-17.4 75.6 0ZM99.44-31.15L85.24-31.15 85.24-19.5 97.94-19.5 97.94-15.75 85.24-15.75 85.24-3.75 99.44-3.75 99.44 0 80.69 0 80.69-34.9 99.44-34.9 99.44-31.15ZM119.29-34.85L123.89-34.85 123.89-9.1Q123.89-4.8 121.24-2.23 118.59 0.35 114.24 0.35L114.24 0.35Q109.84 0.35 107.19-2.27 104.54-4.9 104.54-9.45L104.54-9.45 109.09-9.45Q109.14-6.9 110.42-5.3 111.69-3.7 114.24-3.7L114.24-3.7Q116.79-3.7 118.04-5.23 119.29-6.75 119.29-9.1L119.29-9.1 119.29-34.85ZM148.64 0.35Q143.79 0.35 139.79-1.93 135.79-4.2 133.46-8.28 131.14-12.35 131.14-17.45L131.14-17.45Q131.14-22.55 133.46-26.63 135.79-30.7 139.79-32.98 143.79-35.25 148.64-35.25L148.64-35.25Q153.54-35.25 157.54-32.98 161.54-30.7 163.84-26.65 166.14-22.6 166.14-17.45L166.14-17.45Q166.14-12.3 163.84-8.25 161.54-4.2 157.54-1.93 153.54 0.35 148.64 0.35L148.64 0.35ZM148.64-3.6Q152.29-3.6 155.21-5.3 158.14-7 159.81-10.15 161.49-13.3 161.49-17.45L161.49-17.45Q161.49-21.65 159.81-24.78 158.14-27.9 155.24-29.6 152.34-31.3 148.64-31.3L148.64-31.3Q144.94-31.3 142.04-29.6 139.14-27.9 137.46-24.78 135.79-21.65 135.79-17.45L135.79-17.45Q135.79-13.3 137.46-10.15 139.14-7 142.06-5.3 144.99-3.6 148.64-3.6L148.64-3.6ZM172.04-34.85L176.59-34.85 176.59-12.8Q176.59-8.15 178.86-5.9 181.14-3.65 185.19-3.65L185.19-3.65Q189.19-3.65 191.46-5.9 193.74-8.15 193.74-12.8L193.74-12.8 193.74-34.85 198.29-34.85 198.29-12.85Q198.29-8.5 196.54-5.53 194.79-2.55 191.81-1.1 188.84 0.35 185.14 0.35L185.14 0.35Q181.44 0.35 178.46-1.1 175.49-2.55 173.76-5.53 172.04-8.5 172.04-12.85L172.04-12.85 172.04-34.85ZM229.68 0L224.23 0 215.93-14.25 210.43-14.25 210.43 0 205.88 0 205.88-34.85 217.13-34.85Q221.08-34.85 223.81-33.5 226.53-32.15 227.88-29.85 229.23-27.55 229.23-24.6L229.23-24.6Q229.23-21 227.16-18.25 225.08-15.5 220.93-14.6L220.93-14.6 229.68 0ZM210.43-31.1L210.43-17.9 217.13-17.9Q220.83-17.9 222.68-19.73 224.53-21.55 224.53-24.6L224.53-24.6Q224.53-27.7 222.71-29.4 220.88-31.1 217.13-31.1L217.13-31.1 210.43-31.1ZM263.68-34.9L263.68 0 259.13 0 240.83-27.75 240.83 0 236.28 0 236.28-34.9 240.83-34.9 259.13-7.2 259.13-34.9 263.68-34.9ZM294.83 0L292.03-7.75 276.83-7.75 274.03 0 269.23 0 281.83-34.65 287.08-34.65 299.63 0 294.83 0ZM278.13-11.45L290.73-11.45 284.43-29.05 278.13-11.45ZM309.68-34.85L309.68-3.7 321.88-3.7 321.88 0 305.13 0 305.13-34.85 309.68-34.85Z" opacity="1" transform="matrix(1,0,0,1,0,0)" fill="#010c80" class="undefined-text-0" data-fill-palette-color="primary" id="text-0"></path></svg></g></svg></g><g transform="matrix(1,0,0,1,0,54.72278871533406)"><svg viewBox="0 0 99.10295696399938 27.3597120452759" height="27.3597120452759" width="99.10295696399938"><g transform="matrix(1,0,0,1,0,0)"><svg width="99.10295696399938" viewBox="0.30000001192092896 -35.5 130.38999938964844 36" height="27.3597120452759" data-palette-color="#77d4fc"><path d="M7.9 0L7.9 0 7.9-34.25Q7.9-34.25 7.98-34.43 8.05-34.6 8.5-34.6L8.5-34.6 9.55-34.6Q10-34.6 10.08-34.43 10.15-34.25 10.15-34.25L10.15-34.25 10.15-0.6Q10.15-0.3 10.05-0.18 9.95-0.05 9.47-0.03 9 0 7.9 0ZM17.3-32.85L0.3-32.85 0.3-34.4Q0.3-35 0.95-35L0.95-35 17.95-35 17.95-33.45Q17.95-33.15 17.8-33 17.65-32.85 17.3-32.85L17.3-32.85ZM27.85 0.5L27.85 0.5Q25.45 0.5 23.72-0.4 22-1.3 20.9-3.38 19.8-5.45 19.27-8.97 18.75-12.5 18.75-17.75L18.75-17.75Q18.75-24.2 19.8-28.1 20.85-32 23-33.75 25.15-35.5 28.4-35.5L28.4-35.5Q30.8-35.5 32.5-34.58 34.2-33.65 35.25-31.58 36.3-29.5 36.77-26.13 37.25-22.75 37.25-17.8L37.25-17.8Q37.25-11.1 36.27-7.1 35.3-3.1 33.22-1.3 31.15 0.5 27.85 0.5ZM27.9-1.8L27.9-1.8Q30.4-1.8 31.9-3.35 33.4-4.9 34.12-8.43 34.85-11.95 34.85-17.85L34.85-17.85Q34.85-23.6 34.2-26.95 33.55-30.3 32.12-31.75 30.7-33.2 28.35-33.2L28.35-33.2Q25.9-33.2 24.32-31.65 22.75-30.1 21.97-26.55 21.2-23 21.2-17L21.2-17Q21.2-11.45 21.87-8.13 22.55-4.8 24.02-3.3 25.5-1.8 27.9-1.8ZM51.3 0.5L51.3 0.5Q48.2 0.5 46.4-0.43 44.59-1.35 43.7-2.95 42.8-4.55 42.52-6.6 42.25-8.65 42.25-10.95L42.25-10.95 42.25-34.35Q42.25-34.7 42.34-34.83 42.45-34.95 42.92-34.98 43.4-35 44.55-35L44.55-35 44.55-10.9Q44.55-9.05 44.75-7.38 44.95-5.7 45.65-4.4 46.34-3.1 47.7-2.38 49.05-1.65 51.3-1.65L51.3-1.65Q53.15-1.65 54.87-2.02 56.59-2.4 57.4-2.8L57.4-2.8 57.4-34.4Q57.4-34.75 57.52-34.85 57.65-34.95 58.12-34.98 58.59-35 59.7-35L59.7-35 59.7-1.2Q58.7-0.55 56.34-0.03 54 0.5 51.3 0.5ZM71.24-15L66.69-15Q65.99-15 66.07-15.23 66.14-15.45 66.14-15.8L66.14-15.8 66.14-34.15Q66.14-34.4 66.17-34.7 66.19-35 66.44-35L66.44-35 71.49-35Q74.64-35 76.52-33.77 78.39-32.55 79.22-30.45 80.04-28.35 80.04-25.6L80.04-25.6Q80.04-22.85 79.44-20.88 78.84-18.9 77.67-17.6 76.49-16.3 74.87-15.65 73.24-15 71.24-15L71.24-15ZM65.59 0L65.59 0 65.59-34.4Q65.59-34.4 65.67-34.7 65.74-35 66.19-35L66.19-35 67.24-35Q67.69-35 67.77-34.7 67.84-34.4 67.84-34.4L67.84-34.4 67.84-0.6Q67.84-0.3 67.74-0.18 67.64-0.05 67.17-0.03 66.69 0 65.59 0ZM78.74 0.05L78.74 0.05Q78.49 0.05 78.19 0.03 77.89 0 77.44 0L77.44 0Q76.99-4.2 76.09-7.15 75.19-10.1 74.24-11.95 73.29-13.8 72.64-14.63 71.99-15.45 71.99-15.45L71.99-15.45Q71.99-15.45 71.92-15.73 71.84-16 72.24-16.2L72.24-16.2 73.29-16.75Q73.69-16.75 73.89-16.45L73.89-16.45Q73.89-16.45 74.67-15.45 75.44-14.45 76.49-12.45 77.54-10.45 78.49-7.53 79.44-4.6 79.84-0.7L79.84-0.7Q79.84-0.3 79.67-0.15 79.49 0 78.74 0.05ZM67.59-32.95L67.59-17.15 71.34-17.15Q73.54-17.15 74.89-18.15 76.24-19.15 76.94-21.05 77.64-22.95 77.64-25.7L77.64-25.7Q77.64-27.7 77.12-29.35 76.59-31 75.27-31.98 73.94-32.95 71.59-32.95L71.59-32.95 67.59-32.95ZM84.59 0L84.59 0 84.59-33.8Q84.59-34.4 84.69-34.65 84.79-34.9 85.29-34.95 85.79-35 86.89-35L86.89-35 86.89-0.6Q86.89-0.3 86.79-0.18 86.69-0.05 86.22-0.03 85.74 0 84.59 0ZM98.24 0.5L98.24 0.5Q94.74 0.5 93.19-0.43 91.64-1.35 91.64-2.05L91.64-2.05Q91.64-2.45 91.81-2.88 91.99-3.3 92.39-3.65L92.39-3.65Q93.19-2.9 94.51-2.35 95.84-1.8 98.14-1.8L98.14-1.8Q101.54-1.8 103.04-3.63 104.54-5.45 104.54-8.3L104.54-8.3Q104.54-10.55 103.74-12.33 102.94-14.1 100.84-16.25L100.84-16.25 95.29-21.85Q93.59-23.7 92.69-25.33 91.79-26.95 91.79-28.9L91.79-28.9Q91.79-31.8 93.96-33.65 96.14-35.5 100.04-35.5L100.04-35.5Q103.34-35.5 104.81-34.8 106.29-34.1 106.29-33.4L106.29-33.4Q106.29-33.05 106.11-32.68 105.94-32.3 105.64-32L105.64-32Q105.04-32.5 103.61-32.98 102.19-33.45 100.09-33.45L100.09-33.45Q97.44-33.45 95.79-32.2 94.14-30.95 94.14-28.95L94.14-28.95Q94.14-27.35 94.96-26.05 95.79-24.75 97.04-23.4L97.04-23.4 103.19-17.25Q105.34-15 106.11-13.03 106.89-11.05 106.89-8.55L106.89-8.55Q106.89-5.95 106.01-3.9 105.14-1.85 103.24-0.68 101.34 0.5 98.24 0.5ZM121.34-6.9L120.19-6.9 117.29-16.15Q117.29-16.3 116.94-17.45 116.59-18.6 116.04-20.3 115.49-22 114.94-23.88 114.39-25.75 113.86-27.4 113.34-29.05 113.01-30.1 112.69-31.15 112.69-31.15L112.69-31.15 113.54-35 119.24-16.55Q119.34-16.3 119.61-15.33 119.89-14.35 120.24-13.2 120.59-12.05 120.84-11.23 121.09-10.4 121.09-10.4L121.09-10.4Q121.09-10.4 121.34-11.23 121.59-12.05 121.89-13.15 122.19-14.25 122.49-15.2 122.79-16.15 122.84-16.4L122.84-16.4 128.44-34.4 129.29-30.9Q129.29-30.9 128.99-29.85 128.69-28.8 128.21-27.2 127.74-25.6 127.16-23.75 126.59-21.9 126.09-20.23 125.59-18.55 125.24-17.43 124.89-16.3 124.84-16.15L124.84-16.15 121.89-7.35Q121.74-6.9 121.34-6.9L121.34-6.9ZM111.49 0L111.49 0 111.49-34.4Q111.49-34.75 111.66-34.88 111.84-35 112.09-35L112.09-35 113.54-35 113.74-32.2 113.34-29.85Q113.34-29.85 113.36-28.98 113.39-28.1 113.41-26.65 113.44-25.2 113.49-23.5 113.54-21.8 113.59-20.2 113.64-18.6 113.66-17.38 113.69-16.15 113.69-15.7L113.69-15.7 113.74-0.6Q113.74-0.3 113.61-0.18 113.49-0.05 113.01-0.03 112.54 0 111.49 0ZM128.39 0L128.39 0 128.49-15.3Q128.49-15.8 128.51-17.07 128.54-18.35 128.59-20.08 128.64-21.8 128.66-23.6 128.69-25.4 128.74-26.98 128.79-28.55 128.81-29.5 128.84-30.45 128.84-30.45L128.84-30.45 128.44-31.2 128.44-34.4Q128.49-34.5 128.59-34.75 128.69-35 129.04-35L129.04-35Q129.89-35 130.24-35 130.59-35 130.64-35 130.69-35 130.69-35L130.69-35 130.69-0.6Q130.69-0.3 130.59-0.18 130.49-0.05 130.01-0.03 129.54 0 128.39 0Z" opacity="1" transform="matrix(1,0,0,1,0,0)" fill="#77d4fc" class="undefined-text-1" data-fill-palette-color="secondary" id="text-1"></path></svg></g></svg></g></svg></g></svg></g><g><svg viewBox="0 0 62.39090882813964 113.43801605116298" height="113.43801605116298" width="62.39090882813964"><g><svg xmlns="http://www.w3.org/2000/svg" viewBox="7 2 11 20" x="0" y="0" height="113.43801605116298" width="62.39090882813964" class="icon-icon-0" data-fill-palette-color="accent" id="icon-0"><g fill="#77d4fc" data-fill-palette-color="accent"><path d="M18 10H17v3.293l-1.089-1.089L14.395 9.172a1.994 1.994 0 0 0-1.634-2.159h0a2.014 2.014 0 0 0-0.349-0.031 1.993 1.993 0 0 0-1.355 0.54L7 9.162V14H8V9.838l2.404-0.972L8.895 17.791 7.058 21.267l0.884 0.466 1.873-3.545 0.631-3.46 0.686 0.121L13 17.651V22h1V17.349l-1.506-2.26 0.848 0.15 0.774-4.389 0.937 1.874L17 14.7V22h1ZM13 6a2 2 0 1 0-2-2A2 2 0 0 0 13 6Z" fill="#77d4fc" data-fill-palette-color="accent"></path></g></svg></g></svg></g></svg></g><defs></defs></svg><rect width="395.52" height="95.79550340576253" fill="none" stroke="none" visibility="hidden"></rect></g></svg></g></svg>